<svg width="512" height="96" viewBox="0 0 512 96" fill="none" xmlns="http://www.w3.org/2000/svg">
<g clip-path="url(#clip0_253_42)">
<path d="M47.8072 59.1267C45.5686 59.1267 43.38 58.463 41.5186 57.2191C39.6569 55.9752 38.206 54.2075 37.3495 52.1392C36.4926 50.0708 36.2684 47.7946 36.7052 45.5988C37.1419 43.4031 38.2202 41.3863 39.8031 39.8031C41.3863 38.2202 43.4031 37.1419 45.5988 36.7052C47.7946 36.2684 50.0705 36.4926 52.1389 37.3495C54.2075 38.206 55.9752 39.6569 57.2191 41.5186C58.463 43.38 59.1267 45.5686 59.1267 47.8072C59.1267 50.8095 57.9343 53.6884 55.8114 55.8114C53.6884 57.9343 50.8095 59.1267 47.8072 59.1267ZM47.8072 38.0299C45.8733 38.0299 43.983 38.6033 42.3751 39.6778C40.7672 40.7521 39.5141 42.2792 38.7741 44.0656C38.0342 45.8524 37.8405 47.818 38.2177 49.7149C38.5949 51.6114 39.5264 53.3535 40.8937 54.7208C42.261 56.0884 44.0033 57.0195 45.8999 57.3967C47.7964 57.774 49.7624 57.5803 51.5488 56.8403C53.3356 56.1004 54.8623 54.8472 55.9369 53.2394C57.0112 51.6315 57.5846 49.7411 57.5846 47.8072C57.5846 45.2142 56.5544 42.7273 54.7208 40.8937C52.8871 39.06 50.4005 38.0299 47.8072 38.0299ZM47.8072 64.3393C44.5375 64.3393 41.3412 63.3699 38.6227 61.5532C35.9038 59.7365 33.7849 57.1546 32.5336 54.1338C31.2823 51.113 30.955 47.789 31.5929 44.5819C32.2307 41.3751 33.8053 38.4293 36.1173 36.1173C38.4293 33.8053 41.3751 32.2307 44.5819 31.5929C47.789 30.955 51.113 31.2823 54.1338 32.5336C57.1546 33.7849 59.7365 35.9038 61.5532 38.6227C63.3696 41.3412 64.3393 44.5375 64.3393 47.8072C64.3229 52.187 62.576 56.3823 59.4793 59.4793C56.3823 62.576 52.187 64.3229 47.8072 64.3393ZM47.8072 33.0333C44.8839 33.0271 42.0244 33.8885 39.5909 35.5081C37.1573 37.1277 35.2589 39.4329 34.1359 42.132C33.0129 44.8312 32.7159 47.8026 33.2825 50.6704C33.8491 53.5385 35.2537 56.1738 37.3186 58.2431C39.3836 60.3124 42.0161 61.7225 44.8827 62.295C47.7495 62.8677 50.7216 62.5769 53.4229 61.4594C56.1245 60.3423 58.4337 58.4488 60.0582 56.0184C61.683 53.5882 62.5504 50.7306 62.5504 47.8072C62.5504 43.8944 60.998 40.1411 58.2341 37.3714C55.47 34.6016 51.7203 33.0416 47.8072 33.0333ZM47.8072 69.5518C43.5 69.5518 39.2898 68.2724 35.7108 65.8762C32.1317 63.48 29.3447 60.0749 27.7035 56.0924C26.0624 52.1102 25.6409 47.7301 26.4925 43.508C27.3441 39.2858 29.4304 35.4116 32.487 32.3769C35.5433 29.3421 39.4323 27.2834 43.6603 26.4619C47.8887 25.6403 52.2653 26.093 56.2361 27.7625C60.2066 29.4319 63.5916 32.243 65.9622 35.8391C68.3332 39.4351 69.5823 43.6545 69.5518 47.9614C69.5031 53.6992 67.1917 59.1857 63.1197 63.2286C59.0481 67.2716 53.5453 69.5441 47.8072 69.5518ZM47.8072 28.0367C43.8957 28.0305 40.0702 29.1849 36.815 31.3535C33.5594 33.5224 31.0207 36.608 29.5196 40.2201C28.0185 43.8321 27.6226 47.8082 28.3819 51.6454C29.1413 55.4826 31.022 59.0083 33.7855 61.7762C36.5494 64.5444 40.072 66.4305 43.908 67.1957C47.744 67.9609 51.7206 67.5714 55.3352 66.0758C58.9494 64.5805 62.039 62.0464 64.2128 58.7946C66.3867 55.5424 67.547 51.7188 67.547 47.8072C67.547 42.5691 65.4681 37.545 61.7672 33.8383C58.066 30.1314 53.0454 28.0448 47.8072 28.0367ZM47.8072 74.7643C42.4756 74.7643 37.2637 73.1833 32.8306 70.2214C28.3976 67.2592 24.9425 63.0491 22.9022 58.1234C20.8618 53.1974 20.328 47.7773 21.3681 42.5481C22.4083 37.3189 24.9757 32.5157 28.7457 28.7457C32.5157 24.9757 37.3189 22.4083 42.5481 21.3681C47.7773 20.328 53.1974 20.8618 58.1234 22.9022C63.0491 24.9425 67.2592 28.3976 70.2214 32.8306C73.1833 37.2637 74.7643 42.4756 74.7643 47.8072C74.748 54.9518 71.9027 61.799 66.8508 66.8508C61.799 71.9027 54.9518 74.748 47.8072 74.7643ZM47.8072 23.0401C42.9272 23.0401 38.1563 24.4872 34.0989 27.1985C30.041 29.9097 26.8784 33.7633 25.0108 38.272C23.1433 42.7807 22.6546 47.7421 23.6067 52.5284C24.5588 57.315 26.9088 61.7114 30.3596 65.1625C33.8105 68.6132 38.2069 70.9632 42.9935 71.9153C47.7798 72.8675 52.7412 72.3789 57.2499 70.5113C61.7586 68.6438 65.6122 65.4811 68.3236 61.4233C71.0348 57.3656 72.4819 52.595 72.4819 47.7147C72.4819 41.1707 69.8824 34.8943 65.255 30.2671C60.6276 25.6397 54.3513 23.0401 47.8072 23.0401ZM47.8072 79.9769C41.4449 79.9769 35.225 78.0902 29.9348 74.5552C24.6445 71.0206 20.5212 65.9962 18.0864 60.118C15.6515 54.2399 15.0145 47.7715 16.2558 41.5312C17.497 35.291 20.5609 29.5589 25.0599 25.0599C29.5589 20.5609 35.291 17.497 41.5312 16.2558C47.7715 15.0145 54.2399 15.6516 60.118 18.0864C65.9962 20.5212 71.0206 24.6445 74.5552 29.9348C78.0902 35.225 79.9769 41.4449 79.9769 47.8072C79.9932 52.0436 79.1731 56.2417 77.5643 60.1606C75.9552 64.0796 73.5886 67.6426 70.6002 70.6452C67.6118 73.6481 64.0601 76.0317 60.1489 77.6593C56.2376 79.2872 52.0436 80.1271 47.8072 80.1311V79.9769ZM47.8072 18.0434C41.9192 18.0373 36.1617 19.7777 31.2628 23.0445C26.3642 26.3113 22.5445 30.9578 20.287 36.3958C18.0296 41.8338 17.4358 47.8193 18.5807 53.595C19.7257 59.3707 22.5579 64.677 26.7193 68.8427C30.8807 73.0081 36.1839 75.846 41.9584 76.9971C47.7329 78.1479 53.719 77.5603 59.1594 75.3084C64.5999 73.0565 69.2502 69.2418 72.522 64.3464C75.7939 59.4512 77.5402 53.6952 77.5402 47.8072C77.5322 39.9212 74.3979 32.3599 68.8245 26.7809C63.2511 21.2018 55.6933 18.0597 47.8072 18.0434ZM47.8072 85.1894C40.4138 85.1894 33.1862 82.997 27.0388 78.8893C20.8914 74.7819 16.1 68.9436 13.2706 62.1127C10.4413 55.2821 9.70095 47.7659 11.1433 40.5143C12.5858 33.263 16.1461 26.602 21.3741 21.3741C26.602 16.1461 33.263 12.5858 40.5143 11.1434C47.7659 9.70101 55.2821 10.4413 62.1127 13.2707C68.9436 16.1 74.7819 20.8914 78.8893 27.0388C82.997 33.1862 85.1894 40.4138 85.1894 47.8072C85.1814 57.7191 81.2402 67.2225 74.2314 74.2314C67.2225 81.2402 57.7191 85.1814 47.8072 85.1894ZM47.8072 13.0468C40.931 13.0407 34.2075 15.0741 28.487 18.89C22.7666 22.7058 18.3065 28.1325 15.6708 34.4835C13.0351 40.8348 12.3423 47.8248 13.6801 54.5696C15.0178 61.3148 18.326 67.5112 23.1861 72.3758C28.0463 77.2401 34.2398 80.5539 40.9837 81.8975C47.7273 83.2413 54.718 82.5547 61.0714 79.9247C67.4249 77.2947 72.8558 72.8394 76.6766 67.1223C80.4975 61.4055 82.5369 54.6834 82.5369 47.8072C82.5205 38.5986 78.8573 29.7712 72.3487 23.2568C65.8401 16.7423 57.0158 13.0712 47.8072 13.0468ZM47.8072 90.4019C39.3814 90.4081 31.1432 87.915 24.1345 83.2385C17.1258 78.5618 11.6615 71.9116 8.43289 64.1289C5.20427 56.3462 4.35635 47.781 5.99638 39.5165C7.63642 31.2517 11.6908 23.6592 17.6465 17.6992C23.6022 11.7391 31.1919 7.67929 39.4552 6.03327C47.7187 4.38725 56.2845 5.22897 64.0697 8.45195C71.8546 11.6749 78.5087 17.1344 83.1904 24.1397C87.8722 31.145 90.3711 39.3814 90.3711 47.8072C90.3547 59.0937 85.8661 69.9136 77.8885 77.8974C69.9105 85.8809 59.0937 90.3776 47.8072 90.4019ZM47.8072 8.08099C39.9502 8.08099 32.2696 10.4109 25.7365 14.7761C19.2036 19.1412 14.1117 25.3456 11.1049 32.6045C8.09818 39.8638 7.31148 47.8513 8.84431 55.5575C10.3772 63.2635 14.1607 70.342 19.7165 75.8978C25.2724 81.4536 32.351 85.2372 40.0569 86.7701C47.7631 88.303 55.7509 87.5162 63.0099 84.5096C70.2689 81.5027 76.4734 76.4111 80.8383 69.8781C85.2036 63.3452 87.5335 55.6643 87.5335 47.8072C87.5255 37.2736 83.3372 27.1739 75.8889 19.7256C68.4405 12.2772 58.3409 8.08917 47.8072 8.08099ZM47.8072 95.6145C38.3519 95.6145 29.1088 92.8105 21.247 87.5575C13.3851 82.3043 7.25754 74.8381 3.63912 66.1023C0.0207042 57.3668 -0.926025 47.7542 0.918628 38.4805C2.76328 29.2068 7.31648 20.6884 14.0025 14.0025C20.6884 7.31648 29.2068 2.76328 38.4805 0.918628C47.7542 -0.926025 57.3665 0.0207042 66.1023 3.63912C74.8377 7.25754 82.3043 13.3851 87.5575 21.247C92.8105 29.1088 95.6145 38.3519 95.6145 47.8072C95.5818 60.4709 90.5327 72.6056 81.5724 81.5542C72.6121 90.5031 60.4709 95.5364 47.8072 95.5528V95.6145ZM47.8072 3.0844C38.962 3.0844 30.3152 5.70729 22.9605 10.6215C15.6059 15.5357 9.87367 22.5205 6.48871 30.6925C3.10374 38.8645 2.21807 47.8569 3.94373 56.5322C5.66935 65.2078 9.92879 73.1765 16.1834 79.4312C22.438 85.6857 30.4069 89.9451 39.0823 91.6708C47.7576 93.3965 56.75 92.5107 64.9219 89.1259C73.0939 85.7409 80.0786 80.0086 84.9929 72.654C89.9072 65.2994 92.5301 56.6525 92.5301 47.8072C92.5341 41.93 91.3806 36.1099 89.1352 30.6784C86.8898 25.2471 83.597 20.3112 79.4439 16.1526C75.2911 11.9939 70.3596 8.69401 64.9315 6.44118C59.5033 4.18835 53.6844 3.02674 47.8072 3.02269V3.0844Z" fill="white"/>
<path d="M170.608 74.8193L146.057 41.0072L165.772 17.4997C166.996 16.297 168.412 15.3091 169.961 14.5773C171.867 13.6835 173.948 13.2308 176.051 13.2526H176.45V12.3374H153.779V13.2526H154.77C156.101 13.2526 157.025 13.7504 157.541 14.746C158.053 15.7134 157.941 16.7531 157.21 17.8289L133.589 49.1521C135.17 51.3385 136.572 53.2946 137.794 55.0209C139.016 56.7469 140.337 58.5883 141.756 60.5444C143.175 62.5008 144.543 64.4075 145.861 66.2649C147.179 68.122 148.334 69.7144 149.327 71.0416C150.313 72.3663 150.972 73.2657 151.304 73.7271C152.786 75.7609 154.695 77.4425 156.894 78.6528C158.9 79.7626 161.051 80.5827 163.284 81.0894C165.155 81.5249 167.06 81.7936 168.978 81.8923C170.658 81.9592 171.856 81.9925 172.572 81.9925H180.691V80.9972C178.759 80.9685 176.873 80.4001 175.244 79.3551C173.452 78.1205 171.884 76.586 170.608 74.8193Z" fill="white"/>
<path d="M136.756 80.9892C135.938 81.0006 135.126 80.8433 134.37 80.5272C133.615 80.2107 132.932 79.7425 132.363 79.1506C131.171 77.9884 130.479 76.4034 130.434 74.7348V19.6032C130.479 17.9346 131.171 16.3497 132.363 15.1875C132.931 14.595 133.614 14.1257 134.37 13.8088C135.125 13.4919 135.937 13.334 136.756 13.345H138.042V12.3374H107.952V13.3329H109.242C110.06 13.322 110.872 13.4799 111.628 13.7968C112.383 14.1137 113.066 14.5829 113.634 15.1755C114.823 16.3396 115.515 17.9233 115.563 19.5911V74.7228C115.515 76.3908 114.823 77.9743 113.634 79.1386C113.066 79.7302 112.383 80.1987 111.627 80.5151C110.872 80.8313 110.06 80.9886 109.242 80.9769H107.952V81.9725H138.042V80.9769H136.756V80.9892Z" fill="white"/>
<path d="M241.274 78.3518C240.012 77.0715 238.855 75.6915 237.812 74.2252C236.686 72.6195 235.613 71.0767 234.593 69.5969C233.574 68.117 232.732 66.7907 232.07 65.6187C231.412 64.4599 230.95 63.6142 230.684 63.0815C229.49 61.3164 228.113 59.6841 226.575 58.2123C225.048 56.6272 223.165 55.4336 221.084 54.7319C224.313 54.1968 226.935 53.1022 228.951 51.4483C230.9 49.8747 232.431 47.8406 233.407 45.5273C234.341 43.343 234.828 40.9924 234.841 38.6147C234.841 35.4971 234.23 32.8933 233.008 30.8031C231.827 28.7484 230.142 27.033 228.112 25.8214C225.963 24.5537 223.623 23.6466 221.184 23.1359C218.582 22.5678 215.927 22.2838 213.265 22.2889H182.779V23.2884H184.065C185.404 23.279 186.694 23.7961 187.659 24.7296C188.497 25.5158 189.045 26.5645 189.213 27.7041V76.4651C189.027 77.5967 188.49 78.6408 187.679 79.4476C187.198 79.9458 186.62 80.3396 185.981 80.6046C185.342 80.8698 184.656 81.0006 183.966 80.9892H182.768V81.9848H209.986V80.9892H208.996C207.635 80.9765 206.322 80.4837 205.286 79.5963C204.713 79.1337 204.257 78.5408 203.956 77.8669C203.654 77.1927 203.517 76.4564 203.553 75.7184V26.3754C204.293 26.4421 205.036 26.4555 205.777 26.4155C206.8 26.3834 207.938 26.4155 209.195 26.4677C210.22 26.4864 211.238 26.632 212.226 26.9013C213.447 27.2377 214.602 27.7807 215.641 28.507C216.851 29.3769 217.821 30.5413 218.46 31.8909C219.219 33.3791 219.665 35.3512 219.798 37.8079C219.865 38.6372 219.848 39.4712 219.746 40.2969C219.679 40.8694 219.563 41.4347 219.398 41.9868C218.866 44.7726 218.042 46.8789 216.927 48.3051C215.982 49.5974 214.695 50.5974 213.213 51.1914C211.899 51.6821 210.509 51.935 209.108 51.9381H206.632V52.8332C207.556 52.8332 208.562 53.3137 209.651 54.2745C210.74 55.2353 211.715 56.7781 212.578 58.9029C212.854 59.9207 213.203 60.9176 213.62 61.8854C214.113 63.0815 214.689 64.3088 215.349 65.5666C216.008 66.8308 216.671 68.0714 217.346 69.2999C217.915 70.3788 218.543 71.4253 219.227 72.4348C220.542 74.6543 222.234 76.6242 224.227 78.2555C226.118 79.7175 228.32 80.7215 230.66 81.19C233.642 81.7695 236.676 82.0385 239.713 81.9928H248.031V80.9972C246.783 81.0213 245.542 80.8202 244.365 80.4032C243.206 79.9402 242.153 79.2419 241.274 78.3518Z" fill="white"/>
<path d="M303.447 29.3535C300.205 26.5526 296.435 24.4377 292.361 23.1355C283.039 20.2836 273.083 20.2836 263.761 23.1355C259.687 24.4368 255.916 26.5518 252.675 29.3535C249.588 32.0506 247.15 35.4177 245.547 39.2004C243.899 43.0515 243.074 47.3964 243.071 52.2348C243.071 57.0118 243.896 61.307 245.547 65.1205C247.16 68.8843 249.596 72.2336 252.675 74.9191C255.916 77.721 259.687 79.8359 263.761 81.1372C273.083 83.9893 283.039 83.9893 292.361 81.1372C296.435 79.835 300.205 77.7203 303.447 74.9191C306.535 72.2281 308.989 68.8812 310.636 65.1205C312.32 61.307 313.162 57.0118 313.159 52.2348C313.159 47.3936 312.317 43.0487 310.636 39.2004C308.998 35.4205 306.543 32.0558 303.447 29.3535ZM295.48 66.6621C293.861 70.7084 291.552 73.8421 288.551 76.0634C285.496 78.3042 281.794 79.4759 278.013 79.3991C274.281 79.4685 270.631 78.2959 267.63 76.0634C264.662 73.8449 262.352 70.7109 260.702 66.6621C259.051 62.6129 258.227 57.8038 258.23 52.2348C258.23 46.5988 259.054 41.7403 260.702 37.6591C262.35 33.5779 264.659 30.428 267.63 28.2095C270.631 25.9769 274.281 24.8041 278.013 24.8736C281.794 24.7968 285.496 25.9687 288.551 28.2095C291.555 30.4307 293.864 33.5804 295.48 37.6591C297.096 41.7375 297.904 46.596 297.904 52.2348C297.904 57.8066 297.096 62.6157 295.48 66.6621Z" fill="white"/>
<path d="M380.839 22.2887H360.448V23.2882H362.132C363.542 23.2484 364.911 23.7658 365.944 24.7293C366.441 25.1916 366.842 25.7494 367.122 26.3698C367.403 26.9903 367.557 27.6609 367.576 28.3421V61.0222L322.144 20.8796H321.252C321.875 24.6281 322.208 28.4197 322.242 32.22V75.9149C322.258 76.6012 322.122 77.2819 321.847 77.9096C321.57 78.5372 321.16 79.0964 320.648 79.548C319.59 80.509 318.208 81.0251 316.786 80.989H315.188V81.9846H342.901V80.989H341.22C339.829 81.0139 338.481 80.4976 337.457 79.548C336.945 79.0918 336.529 78.5335 336.239 77.9083C335.949 77.2828 335.792 76.6043 335.776 75.9149V43.0664L381.233 83.2772H382.125C381.792 81.3529 381.545 79.5131 381.381 77.7575C381.218 76.0019 381.138 73.9613 381.135 71.6357V28.3582C381.122 27.6721 381.264 26.9921 381.548 26.3674C381.829 25.7427 382.245 25.1887 382.766 24.7454C383.809 23.7941 385.172 23.2737 386.582 23.2882H388.263V22.2887H380.839Z" fill="white"/>
<path d="M451.939 29.3539C448.697 26.5538 444.928 24.439 440.854 23.1358C431.53 20.2832 421.573 20.2832 412.249 23.1358C408.175 24.4381 404.406 26.5529 401.164 29.3539C398.077 32.051 395.64 35.4182 394.036 39.2008C392.386 43.0519 391.563 47.3965 391.563 52.2352C391.563 57.0119 392.389 61.3072 394.036 65.121C395.649 68.8845 398.086 72.2341 401.164 74.9196C404.406 77.7202 408.175 79.8351 412.246 81.1376C421.57 83.9903 431.527 83.9903 440.85 81.1376C444.922 79.8345 448.694 77.7199 451.936 74.9196C455.023 72.2263 457.475 68.8801 459.125 65.121C460.806 61.3072 461.648 57.0119 461.648 52.2352C461.648 47.394 460.806 43.0491 459.125 39.2008C457.487 35.4228 455.032 32.059 451.939 29.3539ZM443.953 66.6622C442.334 70.7085 440.024 73.8425 437.026 76.0636C433.969 78.305 430.265 79.477 426.48 79.3996C422.748 79.4684 419.1 78.2957 416.099 76.0636C413.131 73.845 410.821 70.7113 409.174 66.6622C407.527 62.6134 406.701 57.8043 406.698 52.2352C406.698 46.5992 407.524 41.7404 409.174 37.6592C410.824 33.5784 413.135 30.4284 416.099 28.2099C419.1 25.9778 422.748 24.8051 426.48 24.874C430.265 24.7966 433.969 25.9685 437.026 28.2099C440.021 30.4311 442.331 33.5808 443.953 37.6592C445.576 41.738 446.384 46.5964 446.378 52.2352C446.39 57.8068 445.588 62.6159 443.972 66.6622H443.953Z" fill="white"/>
<path d="M509.986 56.1168C508.505 53.6289 506.337 51.6244 503.749 50.3441L488.211 40.7099C486.958 39.982 485.82 39.2528 484.796 38.5222C483.828 37.8584 483.01 36.9933 482.403 35.9853C481.835 35.0082 481.61 33.8701 481.758 32.7498C481.804 31.6395 482.11 30.5559 482.653 29.5875C483.195 28.6191 483.957 27.7934 484.876 27.1779C486.819 25.7837 489.376 25.0879 492.544 25.0905C496.504 25.0905 499.542 25.9857 501.652 27.7761C503.765 29.5664 504.82 31.9871 504.82 35.0378H505.711L507.016 22.8867H506.96L507.016 21.9112H501.581C500.832 21.8189 500.039 21.7386 499.185 21.6624C497.334 21.4991 495.471 21.3493 493.596 21.2128C491.717 21.0763 490.12 21.0107 488.803 21.0161C485.771 20.9593 482.764 21.5703 479.994 22.8064C477.502 23.9306 475.361 25.7186 473.807 27.9768C472.197 30.4117 471.225 33.2186 470.988 36.1337C470.562 39.3466 471.136 42.6129 472.625 45.4869C474.109 48.3424 476.505 50.6307 479.815 52.3514L493.87 61.3071C496.51 62.7012 498.407 64.1104 499.561 65.5342C500.687 66.8839 501.297 68.5904 501.291 70.3513C501.291 72.7383 500.335 74.8285 498.423 76.6214C496.51 78.4144 493.642 79.3097 489.814 79.307C486.314 79.307 483.313 78.5603 480.805 77.0671C478.368 75.6527 476.394 73.5618 475.114 71.0456C473.822 68.4958 473.258 65.6369 473.48 62.7842H472.681C471.793 64.2557 471.12 65.8485 470.685 67.5131C470.164 69.3597 469.865 71.2627 469.794 73.1812C469.692 74.8177 469.927 76.4577 470.485 77.9983C471.629 79.1457 472.986 80.0577 474.479 80.6838C476.493 81.5595 478.603 82.1939 480.765 82.5745C483.377 83.0523 486.027 83.2848 488.682 83.2691C493.3 83.2691 497.306 82.5557 500.708 81.1295C503.91 79.8575 506.689 77.7022 508.724 74.9115C510.708 72.0828 511.827 68.7348 511.944 65.2772C512.157 61.6911 511.503 58.6376 509.986 56.1168Z" fill="white"/>
</g>
<defs>
<clipPath id="clip0_253_42">
<rect width="512" height="95.6145" fill="white"/>
</clipPath>
</defs>
</svg>
